<?xml version="1.0" encoding="utf-8"?>
<!-- Generator: Adobe Illustrator 17.0.0, SVG Export Plug-In . SVG Version: 6.00 Build 0)  -->
<!DOCTYPE svg PUBLIC "-//W3C//DTD SVG 1.1//EN" "http://www.w3.org/Graphics/SVG/1.1/DTD/svg11.dtd">
<svg version="1.1" id="Livello_1" xmlns="http://www.w3.org/2000/svg" xmlns:xlink="http://www.w3.org/1999/xlink" x="0px" y="0px"
	 width="100px" height="70px" viewBox="0 0 100 70" enable-background="new 0 0 100 70" xml:space="preserve">
<g>
	<path fill="#FFFFFF" d="M33.125,24.32c-0.417-1.856-0.835-3.462-1.251-4.818c-0.418-1.355-0.835-2.482-1.252-3.379
		c-0.417-0.897-0.813-1.636-1.189-2.221c-0.876-1.335-1.752-1.981-2.628-1.94c-0.543-0.083-1.085-0.041-1.627,0.125
		c-0.46,0.125-0.96,0.355-1.502,0.688c-0.543,0.334-1.044,0.855-1.502,1.564c-0.626,0.96-1.2,1.94-1.721,2.941
		c-0.522,1.001-1.023,1.909-1.502,2.722c-0.48,0.813-0.96,1.47-1.439,1.971c-0.48,0.501-0.97,0.71-1.471,0.626
		c-0.585-0.041-0.97-0.334-1.158-0.876c-0.188-0.541-0.292-1.209-0.313-2.002c-0.021-0.792-0.011-1.647,0.031-2.565
		c0.041-0.917,0-1.783-0.125-2.597c-0.125-0.813-0.366-1.512-0.719-2.096c-0.355-0.584-0.949-0.917-1.783-1.001
		c-0.459-0.041-0.929,0.323-1.408,1.095c-0.48,0.772-0.845,1.752-1.095,2.941c-0.25,1.189-0.366,2.493-0.344,3.911
		c0.021,1.418,0.291,2.733,0.813,3.942c0.521,1.21,1.345,2.221,2.472,3.035c1.126,0.813,2.628,1.22,4.505,1.22
		c1.251,0,2.387-0.344,3.41-1.033c1.022-0.688,1.887-1.449,2.597-2.284c0.834-1.001,1.585-2.128,2.253-3.379
		c1.167,3.838,1.96,7.509,2.378,11.013c0.166,1.502,0.26,3.025,0.282,4.568c0.02,1.543-0.094,3.035-0.344,4.474
		c-0.251,1.439-0.668,2.763-1.252,3.974c-0.584,1.209-1.376,2.231-2.378,3.066c-2.002,1.668-3.817,2.649-5.444,2.941
		c-1.627,0.292-2.889,0.135-3.786-0.469c-0.897-0.605-1.367-1.533-1.408-2.785c-0.042-1.251,0.521-2.607,1.69-4.067
		c1.167-1.461,2.347-2.66,3.535-3.598c1.189-0.939,2.253-1.711,3.191-2.315c0.938-0.605,1.71-1.095,2.315-1.47
		c0.604-0.376,0.907-0.729,0.907-1.064c0.041-0.292-0.501-0.459-1.627-0.501c-1.126-0.041-2.514,0.156-4.161,0.594
		c-1.648,0.438-3.369,1.168-5.162,2.19c-1.794,1.022-3.338,2.409-4.631,4.161c-1.336,1.752-2.096,3.619-2.284,5.601
		c-0.188,1.981,0.031,3.848,0.657,5.6c0.626,1.752,1.554,3.285,2.785,4.599c1.23,1.314,2.638,2.2,4.223,2.659
		c1.668,0.459,3.379,0.552,5.131,0.282c1.752-0.272,3.441-0.897,5.068-1.877c1.627-0.981,3.138-2.305,4.537-3.973
		c1.397-1.669,2.544-3.661,3.442-5.976c0.897-2.315,1.502-4.954,1.814-7.916c0.313-2.962,0.198-6.215-0.344-9.761
		C33.939,28.356,33.541,26.177,33.125,24.32z"/>
	<path fill="#FFFFFF" d="M41.973,35.082c1.647,1.106,3.681,1.637,6.101,1.596c1.918-0.041,3.629-0.542,5.131-1.502
		c1.502-0.959,2.743-2.18,3.723-3.661c0.979-1.48,1.679-3.138,2.096-4.974c0.416-1.835,0.47-3.681,0.156-5.538
		c-0.313-1.856-0.991-3.629-2.033-5.319c-1.043-1.689-2.525-3.118-4.443-4.286c-0.46-0.25-0.761-0.334-0.907-0.25
		c-0.147,0.084-0.407,0.241-0.782,0.469c-0.376,0.23-0.981,0.48-1.814,0.751c-0.835,0.272-2.17,0.469-4.005,0.594
		c-2.002,0.125-3.671,0.813-5.006,2.065c-1.336,1.251-2.295,2.764-2.879,4.537c-0.584,1.774-0.803,3.671-0.657,5.694
		c0.146,2.024,0.657,3.89,1.533,5.6C39.063,32.57,40.325,33.978,41.973,35.082z M44.413,22.036c0.062-1.293,0.177-2.419,0.344-3.379
		c0.166-0.959,0.375-1.564,0.626-1.814c0.834-0.792,1.658-1.136,2.471-1.033c0.813,0.105,1.804,0.761,2.972,1.971
		c0.501,0.501,0.855,1.231,1.064,2.19c0.208,0.96,0.281,2.024,0.219,3.191c-0.062,1.169-0.23,2.368-0.501,3.598
		c-0.272,1.231-0.626,2.357-1.064,3.379c-0.438,1.022-0.929,1.877-1.47,2.565c-0.543,0.688-1.106,1.075-1.69,1.158
		c-0.585,0.084-1.085-0.25-1.502-1.001c-0.418-0.751-0.741-1.71-0.97-2.878c-0.23-1.168-0.386-2.461-0.47-3.88
		C44.36,24.685,44.351,23.329,44.413,22.036z"/>
	<path fill="#FFFFFF" d="M92.82,34.988c-0.292-0.334-0.835-0.604-1.627-0.813c-0.876-0.208-1.554-0.782-2.033-1.721
		c-0.48-0.939-0.835-2.065-1.064-3.379c-0.229-1.314-0.344-2.754-0.344-4.318c0-1.564,0.031-3.087,0.093-4.568
		c0.063-1.48,0.135-2.816,0.219-4.005c0.083-1.189,0.104-2.096,0.062-2.722c-0.042-0.459-0.25-0.928-0.626-1.408
		c-0.375-0.479-0.855-0.907-1.439-1.283c-0.585-0.376-1.211-0.688-1.877-0.939c-0.668-0.25-1.294-0.365-1.877-0.344
		c-0.584,0.022-1.074,0.198-1.47,0.532c-0.397,0.334-0.616,0.876-0.657,1.627c-0.042,0.626-0.094,1.502-0.156,2.628
		c-0.062,1.127-0.188,2.337-0.376,3.629c-0.188,1.294-0.428,2.618-0.719,3.973c-0.292,1.356-0.688,2.576-1.189,3.661
		c-0.501,1.085-1.095,1.981-1.783,2.691c-0.688,0.71-1.512,1.064-2.471,1.064c-0.668,0-1.211-0.354-1.627-1.064
		c-0.417-0.709-0.73-1.616-0.939-2.722c-0.209-1.105-0.355-2.325-0.438-3.66c-0.084-1.335-0.125-2.618-0.125-3.848
		c0-1.23,0.02-2.347,0.062-3.348c0.041-1.001,0.083-1.71,0.125-2.128c0.041-0.876-0.272-1.46-0.939-1.752
		c-0.668-0.292-1.429-0.427-2.284-0.407c-0.856,0.021-1.68,0.156-2.472,0.407c-0.793,0.25-1.314,0.48-1.564,0.688
		c-0.209,0.209-0.397,0.668-0.563,1.376c-0.167,0.71-0.292,1.565-0.375,2.566c-0.084,1.001-0.125,2.086-0.125,3.254
		c0,1.168,0.063,2.337,0.188,3.504c0.125,1.461,0.354,2.91,0.688,4.349c0.333,1.439,0.845,2.764,1.533,3.974
		c0.688,1.21,1.585,2.243,2.691,3.097c1.105,0.855,2.512,1.408,4.223,1.658c1.71,0.25,3.16-0.01,4.349-0.782
		c1.189-0.771,2.159-1.699,2.91-2.784c0.876-1.21,1.585-2.649,2.128-4.318c0.125,1.502,0.479,2.879,1.064,4.13
		c0.501,1.085,1.272,2.127,2.315,3.128c1.042,1.001,2.523,1.669,4.443,2.002c1.167,0.208,2.096,0.229,2.784,0.063
		c0.688-0.166,1.147-0.407,1.377-0.72C93.142,35.645,93.111,35.323,92.82,34.988z"/>
	<path fill="#FFFFFF" d="M47.168,42.023h-7.861c-0.158,0-0.306,0.028-0.442,0.085c-0.133,0.056-0.252,0.136-0.354,0.238
		c-0.103,0.103-0.183,0.224-0.238,0.36c-0.056,0.136-0.085,0.283-0.085,0.436v11.796c0,0.309,0.11,0.575,0.327,0.791
		c0.216,0.217,0.483,0.327,0.791,0.327c0.308,0,0.574-0.11,0.791-0.327c0.217-0.217,0.327-0.483,0.327-0.791v-4.78h4.78
		c0.308,0,0.574-0.11,0.791-0.327c0.217-0.217,0.327-0.483,0.327-0.791c0-0.307-0.11-0.574-0.327-0.791
		c-0.218-0.217-0.484-0.327-0.791-0.327h-4.78V44.26h6.743c0.308,0,0.574-0.11,0.791-0.327c0.217-0.217,0.327-0.483,0.327-0.791
		c0-0.307-0.11-0.574-0.327-0.791C47.742,42.133,47.475,42.023,47.168,42.023z"/>
	<path fill="#FFFFFF" d="M61.691,44.084c-1.368-1.367-3.035-2.061-4.956-2.061c-1.926,0-3.597,0.694-4.964,2.061
		c-1.362,1.362-2.052,3.029-2.052,4.956c0,1.932,0.691,3.602,2.052,4.964c1.362,1.362,3.032,2.052,4.964,2.052
		c1.926,0,3.594-0.691,4.956-2.052c1.367-1.367,2.061-3.038,2.061-4.964c0-0.971-0.173-1.877-0.514-2.693
		C62.897,45.531,62.377,44.77,61.691,44.084z M56.735,53.819c-1.316,0-2.454-0.47-3.382-1.398c-0.928-0.927-1.398-2.065-1.398-3.382
		c0-0.671,0.116-1.289,0.345-1.837c0.228-0.549,0.583-1.065,1.053-1.536c0.47-0.47,0.989-0.826,1.541-1.058
		c0.551-0.231,1.171-0.348,1.841-0.348c1.31,0,2.448,0.473,3.382,1.407c0.928,0.928,1.398,2.063,1.398,3.373
		c0,1.316-0.47,2.454-1.398,3.382S58.051,53.819,56.735,53.819z"/>
	<path fill="#FFFFFF" d="M73.286,50.176c0.299-0.186,0.57-0.397,0.806-0.628c0.287-0.281,0.53-0.591,0.724-0.921
		c0.193-0.331,0.341-0.687,0.439-1.057s0.147-0.757,0.147-1.148c0-0.599-0.118-1.173-0.35-1.706
		c-0.23-0.528-0.547-0.998-0.942-1.396c-0.395-0.397-0.863-0.716-1.393-0.947c-0.532-0.232-1.107-0.35-1.706-0.35h-3.281
		c-0.158,0-0.306,0.028-0.442,0.085c-0.133,0.056-0.252,0.136-0.354,0.238c-0.103,0.103-0.183,0.224-0.238,0.36
		c-0.056,0.136-0.085,0.283-0.085,0.436v11.796c0,0.309,0.11,0.575,0.327,0.791c0.432,0.434,1.148,0.435,1.582,0
		c0.217-0.217,0.327-0.483,0.327-0.791v-4.125h2.194l2.94,4.705c0.24,0.357,0.561,0.538,0.954,0.538c0.153,0,0.3-0.028,0.435-0.084
		c0.136-0.056,0.258-0.136,0.361-0.239c0.102-0.102,0.182-0.221,0.238-0.354c0.057-0.135,0.085-0.283,0.085-0.441
		c0-0.209-0.059-0.412-0.178-0.608L73.286,50.176z M73.165,46.422c0,0.291-0.057,0.569-0.169,0.827
		c-0.114,0.261-0.269,0.494-0.462,0.692c-0.191,0.197-0.421,0.354-0.682,0.466c-0.26,0.112-0.542,0.169-0.84,0.169H68.85V44.26
		h2.162c0.292,0,0.571,0.057,0.832,0.169c0.262,0.113,0.494,0.269,0.689,0.464c0.195,0.195,0.351,0.427,0.464,0.689
		C73.109,45.842,73.165,46.125,73.165,46.422z"/>
	<path fill="#FFFFFF" d="M92.503,42.345c-0.102-0.102-0.224-0.182-0.36-0.238c-0.137-0.056-0.283-0.084-0.435-0.084
		c-0.407,0-0.737,0.197-0.993,0.605l-4.905,9.801l-4.91-9.811c-0.219-0.389-0.56-0.595-0.988-0.595
		c-0.158,0-0.306,0.028-0.442,0.085c-0.133,0.056-0.252,0.136-0.354,0.238c-0.103,0.103-0.183,0.224-0.238,0.36
		c-0.056,0.136-0.085,0.283-0.085,0.436v11.796c0,0.309,0.11,0.575,0.327,0.791c0.432,0.434,1.148,0.435,1.582,0
		c0.217-0.217,0.327-0.483,0.327-0.791v-7.052l3.759,7.504c0.211,0.436,0.564,0.667,1.02,0.667c0.421,0,0.756-0.193,0.977-0.571
		l3.803-7.599v7.051c0,0.309,0.11,0.575,0.327,0.791c0.216,0.217,0.483,0.327,0.791,0.327c0.308,0,0.574-0.11,0.791-0.327
		c0.217-0.217,0.327-0.483,0.327-0.791V43.141c0-0.152-0.028-0.298-0.085-0.436C92.686,42.57,92.606,42.449,92.503,42.345z"/>
</g>
</svg>
